<?xml version="1.0" standalone="no"?><!DOCTYPE svg PUBLIC "-//W3C//DTD SVG 1.1//EN" "http://www.w3.org/Graphics/SVG/1.1/DTD/svg11.dtd"><svg t="1749586317678" class="icon" viewBox="0 0 1024 1024" version="1.1" xmlns="http://www.w3.org/2000/svg" p-id="12002" xmlns:xlink="http://www.w3.org/1999/xlink" width="128" height="128"><path d="M417.28 496.64H70.050909c-24.901818 0-45.149091-20.247273-45.149091-45.149091V95.185455c0-24.901818 20.247273-45.149091 45.149091-45.149091h347.229091c24.901818 0 45.149091 20.247273 45.149091 45.149091V451.490909c0 24.901818-20.247273 45.149091-45.149091 45.149091zM70.050909 95.185455V451.490909h347.229091V95.185455H70.050909zM768.698182 525.498182c-11.636364 0-23.04-4.421818-31.883637-13.265455l-207.127272-207.127272c-8.610909-8.610909-13.265455-19.781818-13.265455-31.883637 0-12.101818 4.654545-23.505455 13.265455-31.883636l207.127272-207.127273c17.687273-17.687273 46.312727-17.687273 64 0l207.127273 207.127273c8.610909 8.610909 13.265455 19.781818 13.265455 31.883636 0 12.101818-4.654545 23.505455-13.265455 31.883637l-207.127273 207.127272c-8.843636 8.843636-20.48 13.265455-32.116363 13.265455z m0-45.149091l207.127273-207.127273-207.127273-207.127273-207.127273 207.127273 207.127273 207.127273zM417.28 1017.250909H70.050909c-24.901818 0-45.149091-20.247273-45.149091-45.149091V615.796364c0-24.901818 20.247273-45.149091 45.149091-45.149091h347.229091c24.901818 0 45.149091 20.247273 45.149091 45.149091v356.305454c0 24.901818-20.247273 45.149091-45.149091 45.149091zM70.050909 615.796364v356.305454h347.229091V615.796364H70.050909zM946.967273 1017.250909H599.738182c-24.901818 0-45.149091-20.247273-45.149091-45.149091V615.796364c0-24.901818 20.247273-45.149091 45.149091-45.149091h347.229091c24.901818 0 45.149091 20.247273 45.149091 45.149091v356.305454c0 24.901818-20.247273 45.149091-45.149091 45.149091zM599.738182 615.796364v356.305454h347.229091V615.796364H599.738182z" fill="#7A889E" p-id="12003"></path></svg>