<?xml version="1.0" standalone="no"?><!DOCTYPE svg PUBLIC "-//W3C//DTD SVG 1.1//EN" "http://www.w3.org/Graphics/SVG/1.1/DTD/svg11.dtd"><svg t="1749586089625" class="icon" viewBox="0 0 1024 1024" version="1.1" xmlns="http://www.w3.org/2000/svg" p-id="4279" xmlns:xlink="http://www.w3.org/1999/xlink" width="128" height="128"><path d="M511.6 727.8c-67.6 0-131.2-26.3-179-74.1-47.8-47.8-74.1-111.4-74.1-179V330.3c0-67.6 26.3-131.2 74.1-179s111.4-74.1 179-74.1 131.2 26.3 179 74.1c47.8 47.8 74.1 111.4 74.1 179v144.4c0 67.6-26.3 131.2-74.1 179-47.8 47.8-111.4 74.1-179 74.1z m0-570.5c-95.4 0-173.1 77.6-173.1 173.1v144.4c0 95.4 77.6 173.1 173.1 173.1 95.4 0 173.1-77.6 173.1-173.1V330.3c0-95.4-77.6-173-173.1-173z" p-id="4280" fill="#35D0B3"></path><path d="M511.6 832.6c-94 0-182.5-33.7-249.3-94.9-32.8-30.1-58.6-65.2-76.6-104.4-18.8-40.8-28.4-84.2-28.4-129 0-22.1 17.9-40 40-40s40 17.9 40 40c0 136.9 123 248.2 274.3 248.2 151.2 0 274.3-111.4 274.3-248.2 0-22.1 17.9-40 40-40s40 17.9 40 40c0 44.7-9.5 88.1-28.4 129-18.1 39.2-43.8 74.3-76.6 104.4-66.7 61.2-155.3 94.9-249.3 94.9z" p-id="4281" fill="#35D0B3"></path><path d="M511.6 947c-22.1 0-40-17.9-40-40V792.6c0-22.1 17.9-40 40-40s40 17.9 40 40V907c0 22.1-17.9 40-40 40z" p-id="4282" fill="#35D0B3"></path></svg>